HIERARCHY
ROOT hip
{
  OFFSET 0 0 0
  CHANNELS 6 Xposition Yposition Zposition Zrotation Yrotation Xrotation
  JOINT abdomen
  {
    OFFSET 0 20.6881 -0.73152
    CHANNELS 3 Zrotation Xrotation Yrotation
    JOINT chest
    {
      OFFSET 0 11.7043 -0.48768
      CHANNELS 3 Zrotation Xrotation Yrotation
      JOINT neck
      {
        OFFSET 0 22.1894 -2.19456
        CHANNELS 3 Zrotation Xrotation Yrotation
        JOINT head
        {
          OFFSET -0.24384 7.07133 1.2192
          CHANNELS 3 Zrotation Xrotation Yrotation
          JOINT leftEye
          {
            OFFSET 4.14528 8.04674 8.04672
            CHANNELS 3 Zrotation Xrotation Yrotation
            End Site
            {
              OFFSET 1 0 0
            }
          }
          JOINT rightEye
          {
            OFFSET -3.6576 8.04674 8.04672
            CHANNELS 3 Zrotation Xrotation Yrotation
            End Site
            {
              OFFSET 1 0 0
            }
          }
        }
      }
      JOINT rCollar
      {
        OFFSET -2.68224 19.2634 -4.8768
        CHANNELS 3 Zrotation Xrotation Yrotation
        JOINT rShldr
        {
          OFFSET -8.77824 -1.95073 1.46304
          CHANNELS 3 Zrotation Xrotation Yrotation
          JOINT rForeArm
          {
            OFFSET -28.1742 -1.7115 0.48768
            CHANNELS 3 Zrotation Xrotation Yrotation
            JOINT rHand
            {
              OFFSET -22.5879 0.773209 7.07136
              CHANNELS 3 Zrotation Xrotation Yrotation
              JOINT rThumb1
              {
                OFFSET -1.2192 -0.487915 3.41376
                CHANNELS 3 Zrotation Xrotation Yrotation
                JOINT rThumb2
                {
                  OFFSET -3.37035 -0.52449 3.41376
                  CHANNELS 3 Zrotation Xrotation Yrotation
                  End Site
                  {
                    OFFSET -1.78271 -1.18214 1.43049
                  }
                }
              }
              JOINT rIndex1
              {
                OFFSET -7.75947 0.938293 5.60832
                CHANNELS 3 Zrotation Xrotation Yrotation
                JOINT rIndex2
                {
                  OFFSET -2.54057 -0.884171 1.56538
                  CHANNELS 3 Zrotation Xrotation Yrotation
                  End Site
                  {
                    OFFSET -1.62519 -0.234802 1.16502
                  }
                }
              }
              JOINT rMid1
              {
                OFFSET -8.24714 1.18213 3.41376
                CHANNELS 3 Zrotation Xrotation Yrotation
                JOINT rMid2
                {
                  OFFSET -3.10165 -0.590103 1.0647
                  CHANNELS 3 Zrotation Xrotation Yrotation
                  End Site
                  {
                    OFFSET -2.48547 -0.328903 0.83742
                  }
                }
              }
              JOINT rRing1
              {
                OFFSET -8.82822 0.546677 1.51678
                CHANNELS 3 Zrotation Xrotation Yrotation
                JOINT rRing2
                {
                  OFFSET -2.60934 -0.819778 -0.0198488
                  CHANNELS 3 Zrotation Xrotation Yrotation
                  End Site
                  {
                    OFFSET -2.33842 -0.294052 0.168128
                  }
                }
              }
              JOINT rPinky1
              {
                OFFSET -8.27202 -0.0477905 -0.4584
                CHANNELS 3 Zrotation Xrotation Yrotation
                JOINT rPinky2
                {
                  OFFSET -1.82734 -0.647385 -0.700984
                  CHANNELS 3 Zrotation Xrotation Yrotation
                  End Site
                  {
                    OFFSET -1.69225 -0.51767 -0.607171
                  }
                }
              }
            }
          }
        }
      }
      JOINT lCollar
      {
        OFFSET 2.68224 19.2634 -4.8768
        CHANNELS 3 Zrotation Xrotation Yrotation
        JOINT lShldr
        {
          OFFSET 8.77824 -1.95073 1.46304
          CHANNELS 3 Zrotation Xrotation Yrotation
          JOINT lForeArm
          {
            OFFSET 28.1742 -1.7115 0.48768
            CHANNELS 3 Zrotation Xrotation Yrotation
            JOINT lHand
            {
              OFFSET 22.5879 0.773209 7.07136
              CHANNELS 3 Zrotation Xrotation Yrotation
              JOINT lThumb1
              {
                OFFSET 1.2192 -0.487915 3.41376
                CHANNELS 3 Zrotation Xrotation Yrotation
                JOINT lThumb2
                {
                  OFFSET 3.37035 -0.52449 3.41376
                  CHANNELS 3 Zrotation Xrotation Yrotation
                  End Site
                  {
                    OFFSET 1.78271 -1.18214 1.43049
                  }
                }
              }
              JOINT lIndex1
              {
                OFFSET 7.75947 0.938293 5.60832
                CHANNELS 3 Zrotation Xrotation Yrotation
                JOINT lIndex2
                {
                  OFFSET 2.54057 -0.884171 1.56538
                  CHANNELS 3 Zrotation Xrotation Yrotation
                  End Site
                  {
                    OFFSET 1.62519 -0.234802 1.16502
                  }
                }
              }
              JOINT lMid1
              {
                OFFSET 8.24714 1.18213 3.41376
                CHANNELS 3 Zrotation Xrotation Yrotation
                JOINT lMid2
                {
                  OFFSET 3.10165 -0.590103 1.0647
                  CHANNELS 3 Zrotation Xrotation Yrotation
                  End Site
                  {
                    OFFSET 2.48547 -0.328903 0.83742
                  }
                }
              }
              JOINT lRing1
              {
                OFFSET 8.82822 0.546677 1.51678
                CHANNELS 3 Zrotation Xrotation Yrotation
                JOINT lRing2
                {
                  OFFSET 2.60934 -0.819778 -0.0198488
                  CHANNELS 3 Zrotation Xrotation Yrotation
                  End Site
                  {
                    OFFSET 2.33842 -0.294052 0.168128
                  }
                }
              }
              JOINT lPinky1
              {
                OFFSET 8.27202 -0.0477905 -0.4584
                CHANNELS 3 Zrotation Xrotation Yrotation
                JOINT lPinky2
                {
                  OFFSET 1.82734 -0.647385 -0.700984
                  CHANNELS 3 Zrotation Xrotation Yrotation
                  End Site
                  {
                    OFFSET 1.69225 -0.51767 -0.607171
                  }
                }
              }
            }
          }
        }
      }
    }
  }
  JOINT rButtock
  {
    OFFSET -8.77824 4.35084 1.2192
    CHANNELS 3 Zrotation Xrotation Yrotation
    JOINT rThigh
    {
      OFFSET 0 -1.70687 -2.19456
      CHANNELS 3 Zrotation Xrotation Yrotation
      JOINT rShin
      {
        OFFSET 0 -36.8199 0.73152
        CHANNELS 3 Zrotation Xrotation Yrotation
        JOINT rFoot
        {
          OFFSET 0.73152 -45.1104 -5.12064
          CHANNELS 3 Zrotation Xrotation Yrotation
          End Site
          {
            OFFSET -1.1221 -3.69964 12.103
          }
        }
      }
    }
  }
  JOINT lButtock
  {
    OFFSET 8.77824 4.35084 1.2192
    CHANNELS 3 Zrotation Xrotation Yrotation
    JOINT lThigh
    {
      OFFSET 0 -1.70687 -2.19456
      CHANNELS 3 Zrotation Xrotation Yrotation
      JOINT lShin
      {
        OFFSET 0 -36.8199 0.73152
        CHANNELS 3 Zrotation Xrotation Yrotation
        JOINT lFoot
        {
          OFFSET -0.73152 -45.1104 -5.12064
          CHANNELS 3 Zrotation Xrotation Yrotation
          End Site
          {
            OFFSET 1.1221 -3.69964 12.103
          }
        }
      }
    }
  }
}
MOTION
Frames:	4
Frame Time:	0.03333
-9.41317 53.62169999999999 80.3779 -7.870700000000001 53.0212 -7.7536 -1.18127 13.621100000000002 -3.34276 7.320470000000001 -10.9628 -0.148531 -9.37663 20.0393 -15.133300000000002 12.694 -27.2991 -27.220000000000002 -0.0 0.0 0.0 -0.0 0.0 0.0 -1.51744e-13 1.70558e-13 -9.19031e-13 54.2527 -4.62343 24.7349 -27.813399999999998 -29.595999999999993 66.6045 -0.631092 21.970600000000005 3.25031 -4.54714e-10 3.48241e-09 4.7593500000000005e-09 -7.143039999999999e-10 6.14411e-09 8.21612e-09 -4.5470800000000006e-10 3.48241e-09 4.759340000000001e-09 7.730909999999999 5.47488 0.417314 -4.547159999999999e-10 3.4824e-09 4.7593500000000005e-09 2.90554 0.965183 0.102902 -4.547129999999999e-10 3.4824e-09 4.75936e-09 10.278600000000003 0.731801 0.0259123 -4.5472500000000005e-10 3.4824e-09 4.75937e-09 2.22167 -0.733487 -0.20892000000000002 -1.51859e-13 1.70556e-13 -9.19429e-13 -82.995 78.1446 5.968400000000001 27.788 -41.4113 -86.49 30.6044 -77.1114 37.8936 1.63182e-09 -3.26965e-08 2.28493e-09 2.66567e-09 -5.6703899999999984e-08 3.95779e-09 1.63182e-09 -3.26965e-08 2.28494e-09 -7.730909999999999 5.47488 -0.417314 1.63183e-09 -3.26965e-08 2.28493e-09 -2.90554 0.965183 -0.102902 1.63182e-09 -3.26965e-08 2.28492e-09 -10.278600000000003 0.731801 -0.0259123 1.63182e-09 -3.26965e-08 2.28492e-09 -2.22167 -0.733487 0.20892000000000002 -2.03217e-16 0.0 -3.88251e-19 -51.8407 -41.6482 -59.0239 -1.52296 64.5345 1.53523 -0.0827862 5.06037 7.12724 2.03217e-16 0.0 3.88251e-19 35.8348 -29.1309 30.6094 5.97377 83.7972 -9.1237 11.2287 -28.1404 23.6161
-9.40347 53.6086 80.6796 -7.670699999999999 53.1458 -7.532099999999999 -1.47498 13.6655 -3.3903800000000004 7.39627 -10.944199999999999 -0.167173 -9.33201 20.1364 -15.236300000000002 12.9259 -27.2103 -27.3767 -0.0 0.0 0.0 -0.0 0.0 0.0 -1.0756000000000001e-13 1.5161599999999998e-13 -6.98573e-13 54.49979999999999 -4.59984 24.7517 -27.804900000000004 -29.553999999999995 66.5378 -0.636982 22.0665 3.26602 -6.46678e-10 1.76359e-09 3.24965e-09 -1.06926e-09 3.1400599999999996e-09 5.61578e-09 -6.46672e-10 1.76359e-09 3.24964e-09 7.730909999999999 5.47488 0.417314 -6.466770000000001e-10 1.76358e-09 3.24965e-09 2.90554 0.965183 0.102902 -6.46672e-10 1.76358e-09 3.24965e-09 10.278600000000003 0.731801 0.0259123 -6.466860000000001e-10 1.76358e-09 3.24966e-09 2.22167 -0.733487 -0.20892000000000002 -1.0774e-13 1.5161599999999998e-13 -6.98939e-13 -83.63480000000001 77.96880000000002 6.54687 27.7778 -41.4544 -86.5697 30.6966 -77.1378 37.9882 9.92387e-10 -2.13924e-08 1.47648e-09 1.61741e-09 -3.704669999999999e-08 2.55342e-09 9.92383e-10 -2.13924e-08 1.4765e-09 -7.730909999999999 5.47488 -0.417314 9.923880000000001e-10 -2.13924e-08 1.47649e-09 -2.90554 0.965183 -0.102902 9.9238e-10 -2.13924e-08 1.47648e-09 -10.278600000000003 0.731801 -0.0259123 9.92385e-10 -2.13924e-08 1.47648e-09 -2.22167 -0.733487 0.20892000000000002 -2.03217e-16 0.0 -3.88251e-19 -52.1401 -41.6598 -59.218300000000006 -1.56129 64.9452 1.57969 -0.0378183 4.70498 6.96219 2.03217e-16 0.0 3.88251e-19 35.8231 -28.969300000000004 30.474 5.73911 83.5932 -8.89926 11.1575 -27.989500000000003 23.6102
-9.37806 53.59930000000001 80.9642 -7.3233 53.2572 -7.2183 -1.8877299999999995 13.7138 -3.42883 7.510100000000002 -10.939 -0.18311699999999997 -9.2956 20.2228 -15.342599999999997 13.1392 -27.0754 -27.5458 -0.0 0.0 0.0 -0.0 0.0 0.0 -3.15926e-14 7.22072e-14 -1.2573099999999999e-14 54.8315 -4.62088 24.766900000000003 -27.804800000000004 -29.5537 66.5369 -0.640255 22.119499999999995 3.27472 1.85996e-10 -1.41756e-10 -8.142860000000001e-10 3.07676e-10 -2.71403e-10 -1.4077500000000002e-09 1.85999e-10 -1.41749e-10 -8.14295e-10 7.730909999999999 5.47488 0.417314 1.8599699999999998e-10 -1.41756e-10 -8.14295e-10 2.90554 0.965183 0.102902 1.86006e-10 -1.41758e-10 -8.14291e-10 10.278600000000003 0.731801 0.0259123 1.85991e-10 -1.41759e-10 -8.14289e-10 2.22167 -0.733487 -0.20892000000000002 -3.18218e-14 7.22085e-14 -1.28713e-14 -83.9665 77.8291 6.86142 27.7705 -41.4847 -86.62590000000002 30.7494 -77.1528 38.0423 7.64127e-11 5.6077399999999995e-09 -4.66397e-10 1.62501e-10 9.39771e-09 -7.87235e-10 7.641e-11 5.60772e-09 -4.66387e-10 -7.730909999999999 5.47488 -0.417314 7.64136e-11 5.6077399999999995e-09 -4.66397e-10 -2.90554 0.965183 -0.102902 7.64038e-11 5.6077399999999995e-09 -4.66395e-10 -10.278600000000003 0.731801 -0.0259123 7.64094e-11 5.6077399999999995e-09 -4.664e-10 -2.22167 -0.733487 0.20892000000000002 -2.03217e-16 0.0 -3.88251e-19 -52.513 -41.6434 -59.4451 -1.60033 65.348 1.6243 0.00353196 4.3633299999999995 6.93647 2.03217e-16 0.0 3.88251e-19 35.772 -28.7439 30.407999999999994 5.490429999999999 83.3545 -8.65611 11.0486 -27.8364 23.5399
-9.34978 53.5913 81.2279 -6.9241 53.3391 -6.8537 -2.34306 13.732499999999998 -3.43106 7.620050000000001 -10.9554 -0.189443 -9.283139999999998 20.2938 -15.4385 13.296600000000002 -26.931899999999995 -27.7089 -0.0 0.0 0.0 -0.0 0.0 0.0 -2.86043e-14 4.51602e-14 5.94515e-13 55.20479999999999 -4.7021 24.7279 -27.818100000000005 -29.619699999999998 66.6419 -0.637823 22.0801 3.26826 9.9693e-10 -7.7696e-10 -3.41381e-09 1.66919e-09 -1.45414e-09 -5.90431e-09 9.96936e-10 -7.76955e-10 -3.41382e-09 7.730909999999999 5.47488 0.417314 9.9693e-10 -7.7696e-10 -3.41381e-09 2.90554 0.965183 0.102902 9.96939e-10 -7.769619999999999e-10 -3.41381e-09 10.278600000000003 0.731801 0.0259123 9.96924e-10 -7.7696e-10 -3.41381e-09 2.22167 -0.733487 -0.20892000000000002 -2.88153e-14 4.51611e-14 5.94248e-13 -83.8203 77.7784 6.73744 27.7725 -41.4766 -86.6111 30.891199999999998 -77.1929 38.1878 -5.99761e-10 1.78554e-08 -1.30956e-09 -9.46247e-10 3.0638899999999995e-08 -2.25183e-09 -5.99763e-10 1.78554e-08 -1.30955e-09 -7.730909999999999 5.47488 -0.417314 -5.9976e-10 1.78554e-08 -1.30956e-09 -2.90554 0.965183 -0.102902 -5.99768e-10 1.78554e-08 -1.30956e-09 -10.278600000000003 0.731801 -0.0259123 -5.99759e-10 1.78554e-08 -1.30957e-09 -2.22167 -0.733487 0.20892000000000002 -2.03217e-16 0.0 -3.88251e-19 -52.935900000000004 -41.6441 -59.7099 -1.6396600000000001 65.7386 1.66774 0.0401864 4.05345 6.98347 2.03217e-16 0.0 3.88251e-19 35.7115 -28.4901 30.41390000000001 5.24454 83.0979 -8.41332 10.9271 -27.6912 23.4408
